<?xml version="1.0" encoding="UTF-8" standalone="no"?>
<!-- Created with Inkscape (http://www.inkscape.org/) -->

<svg
   version="1.1"
   id="svg2"
   width="280.49332"
   height="94.160004"
   viewBox="0 0 280.49332 94.160004"
   sodipodi:docname="University_of_Essex.eps"
   xmlns:inkscape="http://www.inkscape.org/namespaces/inkscape"
   xmlns:sodipodi="http://sodipodi.sourceforge.net/DTD/sodipodi-0.dtd"
   xmlns="http://www.w3.org/2000/svg"
   xmlns:svg="http://www.w3.org/2000/svg">
  <defs
     id="defs6" />
  <sodipodi:namedview
     id="namedview4"
     pagecolor="#ffffff"
     bordercolor="#000000"
     borderopacity="0.25"
     inkscape:showpageshadow="2"
     inkscape:pageopacity="0.0"
     inkscape:pagecheckerboard="0"
     inkscape:deskcolor="#d1d1d1" />
  <g
     id="g8"
     inkscape:groupmode="layer"
     inkscape:label="ink_ext_XXXXXX"
     transform="matrix(1.3333333,0,0,-1.3333333,0,94.16)">
    <g
       id="g10"
       transform="scale(0.1)">
      <path
         d="m 290.609,565.203 h 141.27 v 140.82 h -141.27 z"
         style="fill:#ea292c;fill-opacity:1;fill-rule:nonzero;stroke:none"
         id="path12" />
      <path
         d="m 149.313,423.902 h 141.27 v 141.27 h -141.27 z"
         style="fill:#5b256b;fill-opacity:1;fill-rule:nonzero;stroke:none"
         id="path14" />
      <path
         d="m 290.609,282.598 h 141.27 v 141.273 h -141.27 z"
         style="fill:#ea292c;fill-opacity:1;fill-rule:nonzero;stroke:none"
         id="path16" />
      <path
         d="m 149.313,141.309 h 141.27 v 141.27 h -141.27 z"
         style="fill:#5b256b;fill-opacity:1;fill-rule:nonzero;stroke:none"
         id="path18" />
      <path
         d="m 290.609,0 h 141.27 v 141.27 h -141.27 z"
         style="fill:#ea292c;fill-opacity:1;fill-rule:nonzero;stroke:none"
         id="path20" />
      <path
         d="m 751.957,387.23 c -14.598,0 -26.156,-8.929 -32.047,-21.707 h -0.398 v 19.071 H 704.504 V 281.551 h 15.816 v 53.957 c 0,10.34 1.418,19.668 8.11,27.781 5.48,6.496 12.98,10.352 21.3,10.352 6.692,0 14.2,-3.446 17.649,-9.328 3.043,-5.282 2.84,-12.985 2.84,-19.071 v -63.691 h 15.82 v 57.004 c 0,10.136 0.402,23.925 -4.867,32.644 -6.492,10.754 -16.84,16.031 -29.215,16.031"
         style="fill:#5b256b;fill-opacity:1;fill-rule:nonzero;stroke:none"
         id="path22" />
      <path
         d="m 805.59,281.551 h 15.8203 V 384.59 H 805.59 Z"
         style="fill:#5b256b;fill-opacity:1;fill-rule:nonzero;stroke:none"
         id="path24" />
      <path
         d="m 804.781,402.852 h 17.4414 v 17.8516 H 804.781 Z"
         style="fill:#5b256b;fill-opacity:1;fill-rule:nonzero;stroke:none"
         id="path26" />
      <path
         d="m 1051.32,360.453 h -0.41 v 24.141 h -14.19 V 281.551 h 15.82 v 51.926 c 0,8.113 0.81,14.609 5.08,22.109 5.88,10.348 14.39,16.227 26.56,16.227 h 3.24 v 15.218 l -5.88,0.399 c -16.63,0 -25.35,-12.977 -30.22,-26.977"
         style="fill:#5b256b;fill-opacity:1;fill-rule:nonzero;stroke:none"
         id="path28" />
      <path
         d="m 1167.14,334.688 c -6.29,4.257 -14,5.683 -21.5,7.109 l -15.01,2.637 c -9.13,1.414 -18.46,3.847 -18.46,15.007 0,11.36 12.58,15.012 21.91,15.012 11.76,0 22.31,-4.875 26.37,-16.23 l 14.6,3.043 c -5.07,19.066 -22.32,25.964 -40.77,25.964 -18.87,0 -38.54,-8.929 -38.54,-30.218 0,-18.262 14.4,-25.567 30.22,-28.594 l 16.83,-3.059 c 8.93,-1.621 20.09,-4.656 20.09,-15.613 0,-13.183 -13.99,-17.031 -24.95,-17.031 -12.36,0 -28.8,5.273 -31.04,19.265 l -15.41,-3.054 c 5.27,-21.086 25.15,-29.406 45.23,-29.406 20.09,0 42.8,8.527 42.8,31.847 0,9.336 -4.26,17.852 -12.37,23.321"
         style="fill:#5b256b;fill-opacity:1;fill-rule:nonzero;stroke:none"
         id="path30" />
      <path
         d="m 1197.1,281.551 h 15.8203 V 384.59 H 1197.1 Z"
         style="fill:#5b256b;fill-opacity:1;fill-rule:nonzero;stroke:none"
         id="path32" />
      <path
         d="m 1196.29,402.852 h 17.4414 v 17.8516 H 1196.29 Z"
         style="fill:#5b256b;fill-opacity:1;fill-rule:nonzero;stroke:none"
         id="path34" />
      <path
         d="m 1528.77,384.594 h -18.24 V 372.02 h 18.24 v -90.469 h 15.83 v 90.469 h 23.94 v 12.574 h -23.94 c -0.21,12.98 -0.41,25.558 17.03,25.558 4.46,0 8.72,-0.812 12.98,-1.617 l 3.59,12.778 -14.18,1.41 c -24.96,2.437 -36.06,-16.418 -35.25,-38.129"
         style="fill:#5b256b;fill-opacity:1;fill-rule:nonzero;stroke:none"
         id="path36" />
      <path
         d="m 1642.21,347.469 h 55.3 v 14.004 h -55.3 v 44.218 h 69.9 v 15.012 h -88.03 V 281.551 h 90.06 v 15.012 h -71.93 v 50.906"
         style="fill:#5b256b;fill-opacity:1;fill-rule:nonzero;stroke:none"
         id="path38" />
      <path
         d="m 1797.52,334.688 c -6.29,4.257 -14,5.683 -21.5,7.109 l -15,2.637 c -9.14,1.414 -18.47,3.847 -18.47,15.007 0,11.36 12.59,15.012 21.9,15.012 11.77,0 22.33,-4.875 26.38,-16.23 l 14.6,3.043 c -5.07,19.066 -22.3,25.964 -40.77,25.964 -18.86,0 -38.55,-8.929 -38.55,-30.218 0,-18.262 14.42,-25.567 30.23,-28.594 l 16.84,-3.059 c 8.93,-1.621 20.08,-4.656 20.08,-15.613 0,-13.183 -13.98,-17.031 -24.95,-17.031 -12.37,0 -28.8,5.273 -31.02,19.265 l -15.43,-3.054 c 5.28,-21.086 25.15,-29.406 45.24,-29.406 20.08,0 42.79,8.527 42.79,31.847 0,9.336 -4.26,17.852 -12.37,23.321"
         style="fill:#5b256b;fill-opacity:1;fill-rule:nonzero;stroke:none"
         id="path40" />
      <path
         d="m 1896.5,334.688 c -6.29,4.257 -14,5.683 -21.5,7.109 l -15.01,2.637 c -9.13,1.414 -18.47,3.847 -18.47,15.007 0,11.36 12.59,15.012 21.92,15.012 11.76,0 22.31,-4.875 26.36,-16.23 l 14.61,3.043 c -5.07,19.066 -22.31,25.964 -40.77,25.964 -18.85,0 -38.54,-8.929 -38.54,-30.218 0,-18.262 14.4,-25.567 30.22,-28.594 l 16.84,-3.059 c 8.93,-1.621 20.09,-4.656 20.09,-15.613 0,-13.183 -14.01,-17.031 -24.96,-17.031 -12.37,0 -28.79,5.273 -31.03,19.265 l -15.42,-3.054 c 5.27,-21.086 25.16,-29.406 45.23,-29.406 20.09,0 42.8,8.527 42.8,31.847 0,9.336 -4.26,17.852 -12.37,23.321"
         style="fill:#5b256b;fill-opacity:1;fill-rule:nonzero;stroke:none"
         id="path42" />
      <path
         d="m 2009.59,309.52 c -6.09,-18.895 -24.19,-30.282 -43.91,-30.282 -31.29,0 -47.35,24.793 -47.35,53.653 0,28.453 16.87,54.261 47.76,54.261 32.12,0 45.94,-26.82 45.12,-55.472 h -75 c 0,-8.133 0.41,-15.657 4.27,-23.379 4.88,-9.754 15.65,-15.645 26.43,-15.645 13.41,0 23.16,7.715 27.64,19.903 z m -15.86,33.937 c 0.22,17.074 -9.35,31.504 -27.64,31.504 -17.28,0 -28.45,-15.238 -29.06,-31.504 h 56.7"
         style="fill:#5b256b;fill-opacity:1;fill-rule:nonzero;stroke:none"
         id="path44" />
      <path
         d="m 1018.29,309.52 c -6.1,-18.895 -24.188,-30.282 -43.899,-30.282 -31.301,0 -47.36,24.793 -47.36,53.653 0,28.453 16.871,54.261 47.758,54.261 32.111,0 45.941,-26.82 45.121,-55.472 h -74.988 c 0,-8.133 0.398,-15.657 4.258,-23.379 4.883,-9.754 15.648,-15.645 26.422,-15.645 13.418,0 23.175,7.715 27.648,19.903 z m -15.86,33.937 c 0.21,17.074 -9.348,31.504 -27.641,31.504 -17.269,0 -28.449,-15.238 -29.059,-31.504 h 56.7"
         style="fill:#5b256b;fill-opacity:1;fill-rule:nonzero;stroke:none"
         id="path46" />
      <path
         d="m 1414.34,333.887 c 0,28.593 16.23,53.343 47.26,53.343 30.24,0 45.24,-26.367 45.24,-53.55 0,-28.797 -16.64,-54.16 -47.88,-54.16 -30.83,0 -44.62,27.179 -44.62,54.367 z m 69.78,-26.367 c 4.26,8.113 5.07,17.441 5.07,26.367 0,9.734 -1.22,19.883 -6.49,28.191 -4.87,7.5 -13.38,12.176 -22.31,12.176 -9.95,0 -18.87,-5.68 -23.33,-14.609 -3.86,-7.497 -5.07,-17.438 -5.07,-25.758 0,-9.336 1.42,-20.078 5.88,-28.196 4.45,-7.91 13.18,-12.976 22.52,-12.976 10.54,0 18.86,5.469 23.73,14.805"
         style="fill:#5b256b;fill-opacity:1;fill-rule:nonzero;stroke:none"
         id="path48" />
      <path
         d="m 669.094,421 v -88.07 c 0,-8.321 -0.231,-19.688 -5.895,-26.992 -6.043,-7.93 -20.422,-10.489 -30.765,-10.715 -10.364,0.226 -22.567,2.785 -28.618,10.715 -5.656,7.304 -5.878,18.671 -5.878,26.992 V 421 h -19.477 v -88.07 c 0,-14.414 0.91,-28.418 12.227,-39.785 10.41,-10.547 26.492,-13.399 41.66,-13.399 h 0.152 c 15.172,0 31.238,2.852 41.66,13.399 11.32,11.367 12.231,25.371 12.231,39.785 V 421 h -17.297"
         style="fill:#5b256b;fill-opacity:1;fill-rule:nonzero;stroke:none"
         id="path50" />
      <path
         d="m 2068.24,337.93 30.3,46.265 0.44,0.688 h -16.53 l -0.13,-0.199 -22.46,-35.219 -21.72,34.969 h -18.5 l 30.95,-49.59 -34.78,-53.496 -0.45,-0.696 h 16.73 l 0.14,0.196 26.94,41.73 25.77,-41.476 h 18.71 l -35.41,56.828"
         style="fill:#5b256b;fill-opacity:1;fill-rule:nonzero;stroke:none"
         id="path52" />
      <path
         d="m 922.32,384.883 h -14.57 l -0.098,-0.305 -28.089,-83.457 -28.645,83.313 h -17.695 l 36.816,-103.332 17.102,-0.145 35.597,103.336 0.211,0.59 h -0.629"
         style="fill:#5b256b;fill-opacity:1;fill-rule:nonzero;stroke:none"
         id="path54" />
      <path
         d="m 1381.69,384.883 h -13.73 l -0.11,-0.289 -28.08,-77.203 -27.61,77.203 -48.94,0.011 v 37.079 l -15.82,-1.621 v -35.458 h -18.26 V 372.02 h 18.26 v -56.922 c 0,-20.489 6.69,-33.672 29.21,-33.672 l 15.21,1.211 v 12.578 l -12.17,-1.016 c -12.99,0 -16.43,6.289 -16.43,18.25 v 59.571 h 36.94 l 0.05,0.05 31.02,-88.984 -1.14,-3.359 c -3.77,-11.18 -7.34,-21.778 -21.61,-21.778 -3.02,0 -6.45,0.469 -10.49,1.426 l -0.55,0.129 V 245.77 l 0.33,-0.086 c 3.47,-0.911 7.6,-1.856 11.91,-1.856 9.28,0 14.84,1.211 21.3,8.086 5.68,6.113 7.98,12.207 10.65,19.266 0.01,0 40.49,113.101 40.49,113.101 l 0.2,0.602 h -0.63"
         style="fill:#5b256b;fill-opacity:1;fill-rule:nonzero;stroke:none"
         id="path56" />
    </g>
  </g>
</svg>
